/* XPM */
static const char * icon_octi_xpm[] = {
"17 17 7 1",
" 	c #00000000FFFF",
".	c #FCFCFEFEFCFC",
"X	c #FFFF00000000",
"o	c #FFFFFFFFFFFF",
"O	c #FCFC02020404",
"+	c #C4C4C2C2C4C4",
"@	c #BCBCBEBEBCBC",
"   .......       ",
"  .XXXXXXX.      ",
" .XXXXXXXXX.     ",
".XXXXX.XXXXX.    ",
".XXX.....XXX..   ",
".XXXXX.XXXXX.X.  ",
".XXXXX.XXXXX.X.. ",
".XXXXX.XXXXX.X.X ",
".XXXXX.XXXXX.X.X ",
".XXXXX.XXXXX.X.X ",
" .XXXXXXXXX.oX.X ",
"  .XXXXXXXooXo.X ",
"   ......ooXo.O. ",
"    .XXXXXXo.O.o ",
"     ..oo...O.o  ",
"      .XXXXX.o   ",
"+@+@+@+++++++@+@+"};
