/* XPM */
static const char * tb_ok_xpm[] = {
"17 17 3 1",
" 	c None",
".	c #000000",
"+	c #8B0000",
"                 ",
"             .   ",
"            .+.  ",
"           .++.  ",
"          .+++.  ",
"        ..+++.   ",
" ..    .++++.    ",
".++.  .++++.     ",
".++. .++++.      ",
" .++.++++.       ",
" .+++++..        ",
"  .+++.          ",
"  .++.           ",
"   ..            ",
"                 ",
"                 ",
"                 "};
